<svg xmlns="http://www.w3.org/2000/svg" version="1.1" xmlns:xlink="http://www.w3.org/1999/xlink" xmlns:svgjs="http://svgjs.dev/svgjs" width="1000" height="1000" viewBox="0 0 1000 1000"><rect width="1000" height="1000" fill="#000000"></rect><g transform="matrix(0.7,0,0,0.7,150.07466666666664,406.20329554455446)"><svg viewBox="0 0 375 101" data-background-color="#161618" preserveAspectRatio="xMidYMid meet" height="269" width="1000" xmlns="http://www.w3.org/2000/svg" xmlns:xlink="http://www.w3.org/1999/xlink"><g id="tight-bounds" transform="matrix(1,0,0,1,-0.03976036071776434,-0.18910211181639625)"><svg viewBox="0 0 375.07952880859375 101.37812042236328" height="101.37812042236328" width="375.07952880859375"><g><svg></svg></g><g><svg viewBox="0 0 375.07952880859375 101.37812042236328" height="101.37812042236328" width="375.07952880859375"><g transform="matrix(1,0,0,1,-10.220239639282227,-75.9843978881836)"><path xmlns="http://www.w3.org/2000/svg" d="M10.22 171.216v-95.232h375.08v95.232h-26.944v-3.119h23.825v-88.994h-368.842v88.994h199.683l0 3.119z" fill="#ffffff" fill-rule="nonzero" stroke="none" stroke-width="1" stroke-linecap="butt" stroke-linejoin="miter" stroke-miterlimit="10" stroke-dasharray="" stroke-dashoffset="0" font-family="none" font-weight="none" font-size="none" text-anchor="none" style="mix-blend-mode: normal" data-fill-palette-color="tertiary"></path><g><path xmlns="http://www.w3.org/2000/svg" d="M226.459 174.316l-4.082-13.14h2.054c0.213 0 0.39 0.05 0.53 0.149 0.143 0.099 0.239 0.234 0.288 0.404v0l2.235 7.862c0.056 0.194 0.105 0.405 0.149 0.632 0.046 0.225 0.091 0.465 0.135 0.72v0c0.048-0.254 0.101-0.494 0.156-0.72 0.058-0.228 0.12-0.439 0.185-0.632v0l2.585-7.862c0.048-0.138 0.143-0.265 0.283-0.382 0.143-0.114 0.317-0.171 0.524-0.171v0h0.719c0.211 0 0.387 0.05 0.528 0.149 0.138 0.099 0.235 0.234 0.29 0.404v0l2.563 7.862c0.133 0.388 0.248 0.818 0.345 1.29v0c0.041-0.237 0.085-0.465 0.131-0.683 0.046-0.218 0.093-0.42 0.142-0.607v0l2.235-7.862c0.041-0.15 0.134-0.28 0.28-0.389 0.145-0.109 0.321-0.164 0.527-0.164v0h1.92l-4.082 13.14h-2.207l-2.871-8.978c-0.036-0.116-0.075-0.241-0.117-0.374-0.039-0.133-0.076-0.275-0.112-0.426v0c-0.036 0.15-0.074 0.292-0.113 0.426-0.039 0.133-0.076 0.258-0.113 0.374v0l-2.901 8.978zM245.968 164.847v0c0.589 0 1.129 0.093 1.621 0.28 0.494 0.189 0.921 0.464 1.28 0.825 0.356 0.359 0.635 0.801 0.836 1.327 0.199 0.523 0.298 1.121 0.298 1.792v0c0 0.17-0.007 0.311-0.022 0.425-0.015 0.111-0.042 0.199-0.084 0.262-0.039 0.063-0.091 0.109-0.156 0.138-0.068 0.027-0.153 0.04-0.254 0.04v0h-5.762c0.065 0.957 0.322 1.66 0.771 2.109 0.448 0.448 1.042 0.672 1.781 0.672v0c0.363 0 0.677-0.042 0.941-0.127 0.264-0.085 0.494-0.179 0.691-0.284 0.196-0.102 0.368-0.195 0.516-0.28 0.15-0.085 0.294-0.127 0.433-0.127v0c0.092 0 0.171 0.018 0.236 0.055 0.068 0.036 0.126 0.087 0.174 0.152v0l0.655 0.818c-0.25 0.291-0.528 0.536-0.836 0.734-0.31 0.196-0.634 0.354-0.971 0.473-0.334 0.116-0.676 0.2-1.025 0.251-0.349 0.048-0.687 0.073-1.014 0.073v0c-0.647 0-1.249-0.108-1.807-0.324-0.557-0.216-1.042-0.534-1.454-0.956-0.412-0.422-0.737-0.943-0.974-1.563-0.235-0.62-0.353-1.34-0.352-2.159v0c0-0.635 0.103-1.232 0.309-1.792 0.206-0.562 0.5-1.05 0.883-1.465 0.385-0.414 0.855-0.743 1.41-0.985 0.555-0.242 1.18-0.363 1.876-0.364zM246.015 166.454v0c-0.654 0-1.167 0.185-1.537 0.556-0.368 0.371-0.605 0.894-0.709 1.57v0h4.216c0-0.291-0.039-0.565-0.116-0.821-0.08-0.257-0.201-0.482-0.363-0.676-0.165-0.194-0.371-0.347-0.618-0.458-0.25-0.114-0.54-0.171-0.873-0.171zM253.34 174.316h-1.483v-13.503h2.246v5.325c0.368-0.395 0.786-0.709 1.254-0.942 0.465-0.233 1.011-0.349 1.636-0.349v0c0.509 0 0.973 0.104 1.392 0.313 0.422 0.208 0.785 0.513 1.09 0.912 0.308 0.4 0.544 0.894 0.709 1.483 0.167 0.586 0.251 1.261 0.251 2.025v0c0 0.698-0.093 1.344-0.28 1.937-0.189 0.594-0.458 1.109-0.807 1.545-0.347 0.436-0.767 0.777-1.261 1.022-0.494 0.247-1.047 0.371-1.658 0.371v0c-0.286 0-0.546-0.029-0.781-0.088-0.237-0.058-0.453-0.139-0.647-0.243-0.194-0.102-0.374-0.227-0.542-0.375-0.165-0.15-0.324-0.316-0.476-0.498v0l-0.098 0.629c-0.036 0.158-0.099 0.269-0.189 0.335-0.087 0.068-0.206 0.102-0.356 0.101zM256.219 166.592v0c-0.465 0-0.864 0.098-1.196 0.295-0.33 0.196-0.636 0.474-0.92 0.832v0 4.18c0.254 0.315 0.531 0.534 0.829 0.658 0.3 0.124 0.626 0.185 0.978 0.185v0c0.339 0 0.646-0.063 0.919-0.189 0.271-0.128 0.503-0.322 0.694-0.581 0.191-0.262 0.338-0.59 0.44-0.985 0.104-0.397 0.156-0.866 0.157-1.407v0c0-0.545-0.045-1.007-0.135-1.385-0.087-0.378-0.212-0.686-0.374-0.923-0.165-0.235-0.363-0.407-0.596-0.516-0.233-0.109-0.498-0.164-0.796-0.164zM277.494 167.748v0c0 0.962-0.161 1.845-0.483 2.65-0.32 0.807-0.771 1.501-1.353 2.083-0.582 0.582-1.282 1.032-2.101 1.352-0.817 0.322-1.722 0.483-2.715 0.483v0h-5.016v-13.14h5.016c0.994 0 1.899 0.162 2.715 0.487 0.819 0.322 1.519 0.773 2.101 1.352 0.582 0.579 1.032 1.271 1.353 2.076 0.322 0.807 0.483 1.693 0.483 2.657zM274.993 167.748v0c0-0.722-0.097-1.369-0.291-1.941-0.194-0.574-0.469-1.059-0.825-1.454-0.359-0.397-0.794-0.703-1.305-0.916-0.511-0.211-1.088-0.316-1.73-0.316v0h-2.555v9.251h2.555c0.642 0 1.219-0.107 1.73-0.32 0.511-0.211 0.946-0.515 1.305-0.913 0.356-0.397 0.631-0.882 0.825-1.454 0.194-0.572 0.291-1.218 0.291-1.937zM283.135 164.847v0c0.589 0 1.129 0.093 1.622 0.28 0.494 0.189 0.921 0.464 1.279 0.825 0.356 0.359 0.635 0.801 0.836 1.327 0.199 0.523 0.298 1.121 0.298 1.792v0c0 0.17-0.007 0.311-0.022 0.425-0.015 0.111-0.042 0.199-0.083 0.262-0.039 0.063-0.091 0.109-0.156 0.138-0.068 0.027-0.153 0.04-0.255 0.04v0h-5.761c0.065 0.957 0.322 1.66 0.77 2.109 0.448 0.448 1.042 0.672 1.781 0.672v0c0.363 0 0.677-0.042 0.942-0.127 0.264-0.085 0.494-0.179 0.69-0.284 0.196-0.102 0.368-0.195 0.517-0.28 0.15-0.085 0.294-0.127 0.432-0.127v0c0.092 0 0.171 0.018 0.236 0.055 0.068 0.036 0.126 0.087 0.175 0.152v0l0.654 0.818c-0.25 0.291-0.528 0.536-0.836 0.734-0.31 0.196-0.634 0.354-0.97 0.473-0.334 0.116-0.676 0.2-1.025 0.251-0.349 0.048-0.687 0.073-1.015 0.073v0c-0.647 0-1.249-0.108-1.806-0.324-0.557-0.216-1.042-0.534-1.454-0.956-0.412-0.422-0.737-0.943-0.974-1.563-0.235-0.62-0.353-1.34-0.353-2.159v0c0-0.635 0.103-1.232 0.309-1.792 0.206-0.562 0.5-1.05 0.883-1.465 0.385-0.414 0.855-0.743 1.411-0.985 0.555-0.242 1.18-0.363 1.875-0.364zM283.183 166.454v0c-0.654 0-1.167 0.185-1.538 0.556-0.368 0.371-0.605 0.894-0.709 1.57v0h4.217c0-0.291-0.039-0.565-0.116-0.821-0.08-0.257-0.201-0.482-0.364-0.676-0.165-0.194-0.371-0.347-0.618-0.458-0.25-0.114-0.54-0.171-0.872-0.171zM297.068 164.993l-3.7 9.323h-2.036l-3.707-9.323h1.864c0.162 0 0.299 0.039 0.411 0.116 0.114 0.08 0.191 0.181 0.233 0.302v0l1.799 4.98c0.104 0.291 0.19 0.576 0.258 0.854 0.07 0.279 0.133 0.557 0.189 0.836v0c0.053-0.279 0.115-0.557 0.186-0.836 0.07-0.279 0.16-0.563 0.269-0.854v0l1.842-4.98c0.044-0.121 0.12-0.222 0.229-0.302 0.109-0.078 0.239-0.116 0.389-0.116v0zM301.946 164.847v0c0.589 0 1.129 0.093 1.622 0.28 0.494 0.189 0.921 0.464 1.279 0.825 0.356 0.359 0.635 0.801 0.836 1.327 0.199 0.523 0.298 1.121 0.298 1.792v0c0 0.17-0.007 0.311-0.022 0.425-0.015 0.111-0.042 0.199-0.083 0.262-0.039 0.063-0.091 0.109-0.157 0.138-0.068 0.027-0.153 0.04-0.254 0.04v0h-5.761c0.065 0.957 0.322 1.66 0.77 2.109 0.448 0.448 1.042 0.672 1.781 0.672v0c0.363 0 0.677-0.042 0.942-0.127 0.264-0.085 0.494-0.179 0.69-0.284 0.196-0.102 0.368-0.195 0.517-0.28 0.15-0.085 0.294-0.127 0.432-0.127v0c0.092 0 0.171 0.018 0.236 0.055 0.068 0.036 0.126 0.087 0.175 0.152v0l0.654 0.818c-0.25 0.291-0.528 0.536-0.836 0.734-0.31 0.196-0.634 0.354-0.97 0.473-0.334 0.116-0.676 0.2-1.025 0.251-0.349 0.048-0.687 0.073-1.015 0.073v0c-0.647 0-1.249-0.108-1.806-0.324-0.557-0.216-1.042-0.534-1.454-0.956-0.412-0.422-0.737-0.943-0.974-1.563-0.235-0.62-0.353-1.34-0.353-2.159v0c0-0.635 0.103-1.232 0.309-1.792 0.206-0.562 0.5-1.05 0.883-1.465 0.385-0.414 0.855-0.743 1.411-0.985 0.555-0.242 1.18-0.363 1.875-0.364zM301.994 166.454v0c-0.654 0-1.167 0.185-1.538 0.556-0.368 0.371-0.605 0.894-0.709 1.57v0h4.217c0-0.291-0.039-0.565-0.117-0.821-0.08-0.257-0.201-0.482-0.363-0.676-0.165-0.194-0.371-0.347-0.618-0.458-0.25-0.114-0.54-0.171-0.872-0.171zM307.955 160.813h2.243v13.503h-2.243zM316.715 164.847v0c0.695 0 1.327 0.111 1.894 0.335 0.567 0.225 1.05 0.544 1.45 0.956 0.4 0.412 0.709 0.915 0.927 1.508 0.218 0.594 0.327 1.256 0.327 1.989v0c0 0.739-0.109 1.406-0.327 1.999-0.218 0.594-0.527 1.1-0.927 1.519-0.4 0.417-0.883 0.738-1.45 0.964-0.567 0.225-1.198 0.338-1.894 0.338v0c-0.698 0-1.332-0.113-1.901-0.338-0.569-0.225-1.055-0.546-1.457-0.964-0.402-0.419-0.715-0.926-0.938-1.519-0.221-0.594-0.331-1.26-0.331-1.999v0c0-0.732 0.11-1.395 0.331-1.989 0.223-0.594 0.536-1.097 0.938-1.508 0.402-0.412 0.888-0.731 1.457-0.956 0.569-0.223 1.203-0.334 1.901-0.335zM316.715 172.724v0c0.775 0 1.349-0.261 1.72-0.781 0.373-0.521 0.56-1.284 0.559-2.29v0c0-1.006-0.187-1.771-0.559-2.298-0.371-0.528-0.944-0.792-1.72-0.792v0c-0.788 0-1.369 0.265-1.745 0.796-0.376 0.531-0.563 1.295-0.563 2.294v0c0 1.001 0.188 1.763 0.563 2.286 0.376 0.523 0.957 0.785 1.745 0.785zM325.312 177.363h-2.246v-12.37h1.374c0.145 0 0.269 0.033 0.37 0.098 0.104 0.068 0.171 0.171 0.2 0.309v0l0.182 0.865c0.376-0.431 0.807-0.78 1.294-1.047 0.49-0.267 1.061-0.4 1.716-0.4v0c0.509 0 0.973 0.107 1.392 0.32 0.422 0.211 0.785 0.519 1.09 0.923 0.308 0.402 0.544 0.899 0.709 1.491 0.167 0.589 0.251 1.265 0.251 2.028v0c0 0.698-0.093 1.344-0.28 1.937-0.189 0.594-0.458 1.109-0.807 1.545-0.347 0.436-0.767 0.777-1.261 1.022-0.494 0.247-1.047 0.371-1.658 0.371v0c-0.528 0-0.975-0.081-1.341-0.244-0.366-0.16-0.694-0.383-0.985-0.669v0zM327.427 166.592v0c-0.465 0-0.864 0.098-1.195 0.295-0.33 0.196-0.636 0.474-0.92 0.832v0 4.18c0.254 0.315 0.531 0.534 0.829 0.658 0.3 0.124 0.624 0.185 0.97 0.185v0c0.339 0 0.646-0.063 0.92-0.189 0.276-0.128 0.51-0.322 0.701-0.581 0.191-0.262 0.338-0.59 0.44-0.985 0.104-0.397 0.156-0.866 0.157-1.407v0c0-0.545-0.045-1.007-0.135-1.385-0.087-0.378-0.212-0.686-0.374-0.923-0.165-0.235-0.363-0.407-0.596-0.516-0.233-0.109-0.498-0.164-0.797-0.164zM337.198 164.847v0c0.586 0 1.127 0.093 1.621 0.28 0.494 0.189 0.92 0.464 1.276 0.825 0.359 0.359 0.637 0.801 0.836 1.327 0.201 0.523 0.302 1.121 0.302 1.792v0c0 0.17-0.008 0.311-0.025 0.425-0.015 0.111-0.041 0.199-0.08 0.262-0.039 0.063-0.092 0.109-0.16 0.138-0.065 0.027-0.15 0.04-0.255 0.04v0h-5.761c0.068 0.957 0.326 1.66 0.774 2.109 0.448 0.448 1.042 0.672 1.781 0.672v0c0.363 0 0.676-0.042 0.938-0.127 0.264-0.085 0.494-0.179 0.691-0.284 0.199-0.102 0.372-0.195 0.519-0.28 0.148-0.085 0.292-0.127 0.433-0.127v0c0.09 0 0.168 0.018 0.236 0.055 0.065 0.036 0.122 0.087 0.171 0.152v0l0.654 0.818c-0.247 0.291-0.526 0.536-0.836 0.734-0.308 0.196-0.63 0.354-0.966 0.473-0.337 0.116-0.68 0.2-1.029 0.251-0.347 0.048-0.683 0.073-1.011 0.073v0c-0.649 0-1.253-0.108-1.81-0.324-0.557-0.216-1.042-0.534-1.454-0.956-0.412-0.422-0.735-0.943-0.97-1.563-0.237-0.62-0.356-1.34-0.357-2.159v0c0-0.635 0.103-1.232 0.309-1.792 0.206-0.562 0.502-1.05 0.887-1.465 0.385-0.414 0.854-0.743 1.407-0.985 0.555-0.242 1.181-0.363 1.879-0.364zM337.242 166.454v0c-0.654 0-1.166 0.185-1.534 0.556-0.371 0.371-0.607 0.894-0.709 1.57v0h4.217c0-0.291-0.04-0.565-0.12-0.821-0.078-0.257-0.199-0.482-0.364-0.676-0.162-0.194-0.368-0.347-0.618-0.458-0.247-0.114-0.538-0.171-0.872-0.171zM345.304 174.316h-2.246v-9.323h1.319c0.23 0 0.39 0.042 0.48 0.127 0.092 0.085 0.153 0.23 0.182 0.436v0l0.138 1.127c0.332-0.577 0.722-1.031 1.17-1.363 0.448-0.334 0.951-0.502 1.509-0.502v0c0.46 0 0.842 0.107 1.145 0.32v0l-0.291 1.679c-0.017 0.109-0.056 0.187-0.116 0.233-0.061 0.046-0.143 0.069-0.247 0.069v0c-0.09 0-0.213-0.022-0.371-0.065-0.158-0.041-0.367-0.062-0.629-0.062v0c-0.465 0-0.865 0.128-1.199 0.385-0.332 0.257-0.613 0.634-0.844 1.131v0z" fill="#ffffff" fill-rule="nonzero" stroke="none" stroke-width="1" stroke-linecap="butt" stroke-linejoin="miter" stroke-miterlimit="10" stroke-dasharray="" stroke-dashoffset="0" font-family="none" font-weight="none" font-size="none" text-anchor="none" style="mix-blend-mode: normal" data-fill-palette-color="secondary"></path></g></g><g transform="matrix(1,0,0,1,29.331764404296877,32.768219481380896)"><svg viewBox="0 0 316.416 35.84168145960149" height="35.84168145960149" width="316.416"><g><svg viewBox="0 0 316.416 35.84168145960149" height="35.84168145960149" width="316.416"><g><svg viewBox="0 0 367.52962920709433 41.631522732750945" height="35.84168145960149" width="316.416"><g transform="matrix(1,0,0,1,0,0.7330200577643105)"><svg viewBox="0 0 316.416 40.165482617222324" height="40.165482617222324" width="316.416"><g><svg viewBox="0 0 316.416 40.165482617222324" height="40.165482617222324" width="316.416"><g><svg viewBox="0 0 316.416 40.165482617222324" height="40.165482617222324" width="316.416"><g transform="matrix(1,0,0,1,0,0)"><svg width="316.416" viewBox="2.25 -35.25 280.4200134277344 35.599998474121094" height="40.165482617222324" data-palette-color="#ffffff"><path d="M12 0.35Q5.85 0.35 2.25-2.8L2.25-2.8 3.6-5.8Q5.55-4.25 7.58-3.58 9.6-2.9 12.15-2.9L12.15-2.9Q14.85-2.9 16.28-3.83 17.7-4.75 17.7-6.5L17.7-6.5Q17.7-7.95 16.75-8.8 15.8-9.65 13.6-10.15L13.6-10.15 9.5-11.1Q6.4-11.8 4.75-13.5 3.1-15.2 3.1-17.7L3.1-17.7Q3.1-20.95 5.65-22.95 8.2-24.95 12.45-24.95L12.45-24.95Q15-24.95 17.3-24.13 19.6-23.3 21.15-21.75L21.15-21.75 19.8-18.8Q16.45-21.65 12.45-21.65L12.45-21.65Q9.9-21.65 8.47-20.68 7.05-19.7 7.05-17.95L7.05-17.95Q7.05-16.5 7.93-15.63 8.8-14.75 10.75-14.3L10.75-14.3 14.9-13.3Q18.3-12.5 19.95-10.88 21.6-9.25 21.6-6.65L21.6-6.65Q21.6-3.45 19.03-1.55 16.45 0.35 12 0.35L12 0.35ZM28.35 0L28.35-35.25 42.3-35.25Q47.85-35.25 50.92-32.55 54-29.85 54-24.9L54-24.9Q54-19.95 50.9-17.2 47.8-14.45 42.3-14.45L42.3-14.45 32.45-14.45 32.45 0 28.35 0ZM32.45-17.85L41.9-17.85Q49.95-17.85 49.95-24.9L49.95-24.9Q49.95-31.85 41.9-31.85L41.9-31.85 32.45-31.85 32.45-17.85ZM69.35-24.95Q74-24.95 76.27-22.58 78.55-20.2 78.55-15.35L78.55-15.35 78.55 0 74.6 0 74.6-4.15Q73.65-2 71.7-0.83 69.75 0.35 67.2 0.35L67.2 0.35Q64.85 0.35 62.87-0.6 60.9-1.55 59.75-3.25 58.6-4.95 58.6-7L58.6-7Q58.6-9.75 60-11.28 61.4-12.8 64.6-13.48 67.8-14.15 73.5-14.15L73.5-14.15 74.6-14.15 74.6-15.8Q74.6-18.85 73.35-20.23 72.1-21.6 69.3-21.6L69.3-21.6Q65.1-21.6 60.95-19L60.95-19 59.6-21.95Q61.5-23.3 64.17-24.13 66.85-24.95 69.35-24.95L69.35-24.95ZM67.75-2.85Q70.75-2.85 72.67-4.88 74.6-6.9 74.6-10.1L74.6-10.1 74.6-11.55 73.7-11.55Q69.3-11.55 67-11.18 64.7-10.8 63.72-9.93 62.75-9.05 62.75-7.35L62.75-7.35Q62.75-5.4 64.17-4.13 65.6-2.85 67.75-2.85L67.75-2.85ZM96.64-2.9Q97.74-2.9 98.84-3.05L98.84-3.05 98.64 0.15Q97.49 0.35 96.14 0.35L96.14 0.35Q91.74 0.35 89.52-1.95 87.29-4.25 87.29-8.35L87.29-8.35 87.29-21.15 82.54-21.15 82.54-24.35 87.29-24.35 87.29-31.75 91.34-31.75 91.34-24.35 98.24-24.35 98.24-21.15 91.34-21.15 91.34-8.65Q91.34-2.9 96.64-2.9L96.64-2.9ZM123.34-13.05L123.34-11.55 105.54-11.55Q105.74-7.3 107.84-5.13 109.94-2.95 113.79-2.95L113.79-2.95Q118.04-2.95 121.59-5.85L121.59-5.85 122.94-2.9Q121.34-1.4 118.84-0.53 116.34 0.35 113.74 0.35L113.74 0.35Q108.04 0.35 104.77-3 101.49-6.35 101.49-12.25L101.49-12.25Q101.49-16 102.94-18.88 104.39-21.75 107.02-23.35 109.64-24.95 112.99-24.95L112.99-24.95Q117.84-24.95 120.59-21.78 123.34-18.6 123.34-13.05L123.34-13.05ZM113.04-21.8Q109.84-21.8 107.92-19.8 105.99-17.8 105.64-14.15L105.64-14.15 119.79-14.15Q119.69-17.85 117.94-19.83 116.19-21.8 113.04-21.8L113.04-21.8ZM142.74-24.95L143.09-21.45 140.44-21.2Q136.69-20.85 135.01-18.85 133.34-16.85 133.34-13.9L133.34-13.9 133.34 0 129.29 0 129.29-24.35 133.24-24.35 133.24-20.1Q135.29-24.35 141.29-24.85L141.29-24.85 142.74-24.95ZM159.19-24.95Q167.94-24.95 167.94-15.3L167.94-15.3 167.94 0 163.89 0 163.89-15.05Q163.89-18.45 162.56-20 161.24-21.55 158.34-21.55L158.34-21.55Q154.99-21.55 152.99-19.5 150.99-17.45 150.99-13.95L150.99-13.95 150.99 0 146.94 0 146.94-24.35 150.94-24.35 150.94-20.35Q152.14-22.6 154.29-23.78 156.44-24.95 159.19-24.95L159.19-24.95ZM185.43 0.35Q181.98 0.35 179.36-1.2 176.73-2.75 175.31-5.63 173.88-8.5 173.88-12.3L173.88-12.3Q173.88-16.1 175.31-18.98 176.73-21.85 179.36-23.4 181.98-24.95 185.43-24.95L185.43-24.95Q188.88-24.95 191.53-23.4 194.18-21.85 195.61-18.98 197.03-16.1 197.03-12.3L197.03-12.3Q197.03-8.5 195.61-5.63 194.18-2.75 191.53-1.2 188.88 0.35 185.43 0.35L185.43 0.35ZM185.43-3Q189.03-3 190.96-5.38 192.88-7.75 192.88-12.3L192.88-12.3Q192.88-16.75 190.93-19.18 188.98-21.6 185.43-21.6L185.43-21.6Q181.88-21.6 179.93-19.18 177.98-16.75 177.98-12.3L177.98-12.3Q177.98-7.8 179.91-5.4 181.83-3 185.43-3L185.43-3ZM211.33 0.35Q205.18 0.35 201.58-2.8L201.58-2.8 202.93-5.8Q204.88-4.25 206.91-3.58 208.93-2.9 211.48-2.9L211.48-2.9Q214.18-2.9 215.61-3.83 217.03-4.75 217.03-6.5L217.03-6.5Q217.03-7.95 216.08-8.8 215.13-9.65 212.93-10.15L212.93-10.15 208.83-11.1Q205.73-11.8 204.08-13.5 202.43-15.2 202.43-17.7L202.43-17.7Q202.43-20.95 204.98-22.95 207.53-24.95 211.78-24.95L211.78-24.95Q214.33-24.95 216.63-24.13 218.93-23.3 220.48-21.75L220.48-21.75 219.13-18.8Q215.78-21.65 211.78-21.65L211.78-21.65Q209.23-21.65 207.81-20.68 206.38-19.7 206.38-17.95L206.38-17.95Q206.38-16.5 207.26-15.63 208.13-14.75 210.08-14.3L210.08-14.3 214.23-13.3Q217.63-12.5 219.28-10.88 220.93-9.25 220.93-6.65L220.93-6.65Q220.93-3.45 218.36-1.55 215.78 0.35 211.33 0.35L211.33 0.35ZM237.53-2.9Q238.63-2.9 239.73-3.05L239.73-3.05 239.53 0.15Q238.38 0.35 237.03 0.35L237.03 0.35Q232.63 0.35 230.4-1.95 228.18-4.25 228.18-8.35L228.18-8.35 228.18-21.15 223.43-21.15 223.43-24.35 228.18-24.35 228.18-31.75 232.23-31.75 232.23-24.35 239.13-24.35 239.13-21.15 232.23-21.15 232.23-8.65Q232.23-2.9 237.53-2.9L237.53-2.9ZM257.28-24.95L257.63-21.45 254.98-21.2Q251.23-20.85 249.55-18.85 247.88-16.85 247.88-13.9L247.88-13.9 247.88 0 243.83 0 243.83-24.35 247.78-24.35 247.78-20.1Q249.83-24.35 255.83-24.85L255.83-24.85 257.28-24.95ZM271.07 0.35Q267.62 0.35 265-1.2 262.37-2.75 260.95-5.63 259.52-8.5 259.52-12.3L259.52-12.3Q259.52-16.1 260.95-18.98 262.37-21.85 265-23.4 267.62-24.95 271.07-24.95L271.07-24.95Q274.52-24.95 277.17-23.4 279.82-21.85 281.25-18.98 282.67-16.1 282.67-12.3L282.67-12.3Q282.67-8.5 281.25-5.63 279.82-2.75 277.17-1.2 274.52 0.35 271.07 0.35L271.07 0.35ZM271.07-3Q274.67-3 276.6-5.38 278.52-7.75 278.52-12.3L278.52-12.3Q278.52-16.75 276.57-19.18 274.62-21.6 271.07-21.6L271.07-21.6Q267.52-21.6 265.57-19.18 263.62-16.75 263.62-12.3L263.62-12.3Q263.62-7.8 265.55-5.4 267.47-3 271.07-3L271.07-3Z" opacity="1" transform="matrix(1,0,0,1,0,0)" fill="#ffffff" class="undefined-text-0" data-fill-palette-color="primary" id="text-0"></path></svg></g></svg></g></svg></g></svg></g><g transform="matrix(1,0,0,1,325.89810647434336,0)"><svg viewBox="0 0 41.631522732750945 41.631522732750945" height="41.631522732750945" width="41.631522732750945"><g><svg xmlns="http://www.w3.org/2000/svg" data-name="Layer 1" viewBox="0 0 128 128" x="0" y="0" height="41.631522732750945" width="41.631522732750945" class="icon-icon-0" data-fill-palette-color="accent" id="icon-0"><path d="M18.136 82.998c-4.542 11.393-4.679 20.969 0.609 26.257 2.711 2.711 6.544 3.998 11.174 3.998a41.839 41.839 0 0 0 15.084-3.387C49.847 121.133 56.521 128 64 128s14.153-6.867 18.997-18.135a41.841 41.841 0 0 0 15.084 3.387c4.628 0 8.464-1.287 11.174-3.997 5.288-5.288 5.151-14.864 0.609-26.257C121.132 78.154 128 71.479 128 64s-6.868-14.154-18.136-18.998c4.542-11.393 4.679-20.969-0.609-26.257C103.966 13.457 94.39 13.593 82.998 18.135 78.154 6.868 71.479 0 64 0 56.521 0 49.846 6.868 45.002 18.136c-11.392-4.542-20.968-4.679-26.257 0.609-5.288 5.288-5.151 14.864-0.609 26.257C6.868 49.846 0 56.521 0 64S6.868 78.154 18.136 82.998Zm3.437 23.429c-4.121-4.121-3.695-12.19 0.274-21.963a100.747 100.747 0 0 0 17.21 4.479A100.75 100.75 0 0 0 43.535 106.153C33.763 110.121 25.696 110.546 21.573 106.427Zm15.493-38.063Q35.315 66.18 33.71 64q1.604-2.179 3.356-4.364C37.027 61.078 37 62.53 37 64S37.027 66.922 37.066 68.364Zm-5.816-7.814a98.957 98.957 0 0 1-7.776-13.336A98.959 98.959 0 0 1 38.402 43.282q-0.656 4.687-1.012 9.696Q34.103 56.764 31.25 60.55ZM37.39 75.022q0.352 5.001 1.012 9.696a98.959 98.959 0 0 1-14.928-3.932 98.957 98.957 0 0 1 7.776-13.336Q34.1 71.228 37.39 75.022ZM47.736 47.736q3.382-3.382 6.856-6.436Q59.203 41.007 64 41q4.789 0 9.408 0.3 3.463 3.051 6.856 6.436 3.384 3.384 6.437 6.861Q86.993 59.206 87 64q0 4.786-0.299 9.403-3.052 3.465-6.437 6.861-3.384 3.384-6.861 6.437Q68.794 86.993 64 87q-4.786 0-9.403-0.299-3.465-3.052-6.861-6.437-3.384-3.384-6.437-6.861Q41.007 68.794 41 64q0-4.786 0.299-9.403Q44.352 51.131 47.736 47.736Zm-5.867 0.305q0.306-2.783 0.713-5.459 2.675-0.406 5.459-0.713c-1.048 0.992-2.093 1.999-3.133 3.039S42.862 46.993 41.869 48.041ZM59.625 37.067q2.189-1.756 4.375-3.361 2.184 1.608 4.375 3.361C66.929 37.027 65.474 37 64 37S61.071 37.027 59.625 37.067ZM79.959 41.869q2.783 0.306 5.459 0.713 0.406 2.675 0.713 5.459c-0.992-1.048-2-2.093-3.039-3.133S81.007 42.862 79.959 41.869Zm6.172 38.09q-0.306 2.783-0.713 5.459-2.672 0.406-5.453 0.712 1.569-1.486 3.127-3.038C84.131 82.052 85.138 81.007 86.131 79.959ZM68.364 90.934q-2.184 1.752-4.364 3.357-2.179-1.604-4.365-3.357C61.078 90.973 62.53 91 64 91S66.922 90.973 68.364 90.934ZM48.035 86.13q-2.78-0.306-5.453-0.712-0.406-2.675-0.713-5.459c0.992 1.048 2 2.093 3.039 3.133Q46.465 84.648 48.035 86.13Zm-4.753 3.468q4.685 0.655 9.691 1.012 3.786 3.288 7.573 6.143a98.939 98.939 0 0 1-13.332 7.773A98.957 98.957 0 0 1 43.282 89.598ZM64 124c-5.827 0-11.23-6.004-15.334-15.718a100.87 100.87 0 0 0 15.334-9.011 100.857 100.857 0 0 0 15.335 9.01C75.231 117.996 69.827 124 64 124Zm16.786-19.473A98.95 98.95 0 0 1 67.454 96.753q3.778-2.851 7.574-6.143 4.998-0.352 9.69-1.012A98.956 98.956 0 0 1 80.786 104.527Zm25.641 1.9c-4.121 4.122-12.19 3.696-21.963-0.273a100.752 100.752 0 0 0 4.479-17.211 100.747 100.747 0 0 0 17.21-4.479C110.122 94.237 110.547 102.306 106.427 106.427ZM90.934 59.636Q92.685 61.82 94.29 64q-1.604 2.179-3.356 4.364C90.973 66.922 91 65.47 91 64S90.973 61.078 90.934 59.636ZM90.61 52.978q-0.352-5.001-1.012-9.696a98.959 98.959 0 0 1 14.928 3.932 98.957 98.957 0 0 1-7.776 13.336Q93.9 56.772 90.61 52.978Zm0 22.044q3.287-3.785 6.14-7.572a98.957 98.957 0 0 1 7.776 13.336A98.959 98.959 0 0 1 89.598 84.718Q90.254 80.031 90.61 75.022ZM124 64c0 5.828-6.006 11.232-15.723 15.336A100.743 100.743 0 0 0 99.274 64 100.743 100.743 0 0 0 108.277 48.664C117.994 52.768 124 58.172 124 64ZM98.044 18.67c3.534 0 6.41 0.932 8.383 2.903 4.121 4.121 3.695 12.19-0.273 21.963a100.747 100.747 0 0 0-17.211-4.479 100.75 100.75 0 0 0-4.479-17.211A37.466 37.466 0 0 1 98.044 18.67ZM84.718 38.402q-4.687-0.656-9.696-1.012-3.784-3.286-7.569-6.138a99.022 99.022 0 0 1 13.333-7.779A98.949 98.949 0 0 1 84.718 38.402ZM64 4c5.828 0 11.232 6.006 15.336 15.722a100.746 100.746 0 0 0-15.337 9.004A100.755 100.755 0 0 0 48.664 19.723C52.768 10.006 58.172 4 64 4ZM47.214 23.474a99.029 99.029 0 0 1 13.333 7.778q-3.777 2.85-7.569 6.138-5.001 0.352-9.696 1.012A98.954 98.954 0 0 1 47.214 23.474ZM21.573 21.573c1.973-1.973 4.848-2.903 8.383-2.903a37.465 37.465 0 0 1 13.58 3.176 100.749 100.749 0 0 0-4.479 17.211A100.747 100.747 0 0 0 21.846 43.536C17.878 33.763 17.453 25.694 21.573 21.573ZM19.723 48.664A100.743 100.743 0 0 0 28.726 64 100.743 100.743 0 0 0 19.723 79.336C10.006 75.232 4 69.828 4 64S10.006 52.768 19.723 48.664Z" fill="#ffffff" data-fill-palette-color="accent"></path><path d="M64 81A17 17 0 1 0 47 64 17.019 17.019 0 0 0 64 81Zm0-30A13 13 0 1 1 51 64 13.015 13.015 0 0 1 64 51Z" fill="#ffffff" data-fill-palette-color="accent"></path><path d="M64 72a8 8 0 1 0-8-8A8.009 8.009 0 0 0 64 72Zm0-12a4 4 0 1 1-4 4A4.004 4.004 0 0 1 64 60Z" fill="#ffffff" data-fill-palette-color="accent"></path></svg></g></svg></g></svg></g></svg></g></svg></g></svg></g><defs></defs></svg><rect width="375.07952880859375" height="101.37812042236328" fill="none" stroke="none" visibility="hidden"></rect></g></svg></g></svg>